<?xml version="1.0"?><svg fill="transparent" viewBox="0 0 200 200" xmlns="http://www.w3.org/2000/svg"><circle cx="40" cy="160" r="7.5" stroke="black" fill="black" stroke-width=""/><circle cx="40" cy="130" r="7.5" stroke="black" fill="black" stroke-width=""/><circle cx="40" cy="100" r="7.5" stroke="black" fill="black" stroke-width=""/><circle cx="40" cy="70" r="7.5" stroke="black" fill="black" stroke-width=""/><circle cx="40" cy="40" r="7.5" stroke="black" fill="black" stroke-width=""/><circle cx="70" cy="160" r="7.5" stroke="black" fill="black" stroke-width=""/><circle cx="70" cy="130" r="7.5" stroke="black" fill="black" stroke-width=""/><circle cx="70" cy="100" r="7.5" stroke="black" fill="black" stroke-width=""/><circle cx="70" cy="70" r="7.5" stroke="black" fill="black" stroke-width=""/><circle cx="70" cy="40" r="7.5" stroke="black" fill="black" stroke-width=""/><circle cx="100" cy="160" r="7.5" stroke="black" fill="black" stroke-width=""/><circle cx="100" cy="130" r="7.5" stroke="black" fill="black" stroke-width=""/><circle cx="100" cy="100" r="7.5" stroke="black" fill="black" stroke-width=""/><circle cx="100" cy="70" r="7.5" stroke="black" fill="black" stroke-width=""/><circle cx="100" cy="40" r="7.5" stroke="black" fill="black" stroke-width=""/><circle cx="130" cy="160" r="7.5" stroke="black" fill="black" stroke-width=""/><circle cx="130" cy="130" r="7.5" stroke="black" fill="black" stroke-width=""/><circle cx="130" cy="100" r="7.5" stroke="black" fill="black" stroke-width=""/><circle cx="130" cy="70" r="7.5" stroke="black" fill="black" stroke-width=""/><circle cx="130" cy="40" r="7.5" stroke="black" fill="black" stroke-width=""/><circle cx="160" cy="160" r="7.5" stroke="black" fill="black" stroke-width=""/><circle cx="160" cy="130" r="7.5" stroke="black" fill="black" stroke-width=""/><circle cx="160" cy="100" r="7.5" stroke="black" fill="black" stroke-width=""/><circle cx="160" cy="70" r="7.5" stroke="black" fill="black" stroke-width=""/><circle cx="160" cy="40" r="7.5" stroke="black" fill="black" stroke-width=""/></svg>