<?xml version="1.0"?><svg fill="transparent" viewBox="0 0 200 200" xmlns="http://www.w3.org/2000/svg"><path stroke="black" fill="none" stroke-width="10" stroke-linejoin="miter" d="M 68 20 L 95 47"/><path stroke="black" fill="none" stroke-width="10" stroke-linejoin="miter" d="M 110 62 L 138 90"/><path stroke="black" fill="none" stroke-width="10" stroke-linejoin="miter" d="M 153 105 L 180 132"/><path stroke="black" fill="none" stroke-width="10" stroke-linejoin="miter" d="M 20 68 L 47 95"/><path stroke="black" fill="none" stroke-width="10" stroke-linejoin="miter" d="M 62 110 L 90 138"/><path stroke="black" fill="none" stroke-width="10" stroke-linejoin="miter" d="M 105 153 L 132 180"/><path stroke="black" fill="none" stroke-width="10" d="M 52 36 C  48 40,  48 40,  44 44 C  28 60,  44 76,  60 60 C  76 44,  92 60,  76 76 C  60 92,  76 108,  92 92 C  108 76,  124 92,  108 108 C  92 124,  108 140,  124 124 C  140 108,  156 124,  140 140 C  124 156,  140 172,  156 156 C  160 152,  160 152,  164 148 "/></svg>