<?xml version="1.0"?><svg fill="transparent" viewBox="0 0 200 200" xmlns="http://www.w3.org/2000/svg"><path stroke="black" fill="black" stroke-width="" stroke-linejoin="miter" d="M 170 30 L 170 42.5 L 30 42.5 L 30 30 Z"/><path stroke="black" fill="black" stroke-width="" stroke-linejoin="miter" d="M 170 61.875 L 170 74.375 L 136.99099999999999 74.375 L 131.765 68.125 L 123.906 61.875 Z"/><path stroke="black" fill="black" stroke-width="" stroke-linejoin="miter" d="M 30 61.875 L 30 74.375 L 63.009 74.375 L 68.235 68.125 L 76.094 61.875 Z"/><path stroke="black" fill="black" stroke-width="" stroke-linejoin="miter" d="M 30 93.75 L 30 106.25 L 55.436 106.25 L 55 100 L 55.436 93.75 Z"/><path stroke="black" fill="black" stroke-width="" stroke-linejoin="miter" d="M 170 93.75 L 170 106.25 L 144.564 106.25 L 145 100 L 144.564 93.75 Z"/><path stroke="black" fill="black" stroke-width="" stroke-linejoin="miter" d="M 170 138.125 L 170 125.625 L 136.99099999999999 125.625 L 131.765 131.875 L 123.906 138.125 Z"/><path stroke="black" fill="black" stroke-width="" stroke-linejoin="miter" d="M 30 138.125 L 30 125.625 L 63.009 125.625 L 68.235 131.875 L 76.094 138.125 Z"/><path stroke="black" fill="black" stroke-width="" stroke-linejoin="miter" d="M 170 170 L 170 157.5 L 30 157.5 L 30 170 Z"/></svg>