<?xml version="1.0"?><svg fill="transparent" viewBox="0 0 200 200" xmlns="http://www.w3.org/2000/svg"><path stroke="black" fill="none" stroke-width="12.5" stroke-linejoin="miter" d="M 30 170 L 30 30 L 170 30 L 170 170 Z"/><circle cx="100" cy="102" r="12.5" stroke="black" fill="black" stroke-width=""/><path stroke="black" fill="none" stroke-width="10" d="M 100 137 C  92.339556 143.42788000000002,  80.98264 153.69468,  68.84738 144.8779 C  56.71213 136.06112000000002,  62.96696 122.08743,  66.71302 112.81559 C  58.23254 107.516402,  44.95875 99.8879478,  49.59401 85.6221 C  54.22926 71.35625,  69.45188 72.98684,  79.42752 73.6844 C  81.84674 63.98145,  85 49,  100.0000009301504 49 C  115 49,  118.15326 63.98145,  120.57248 73.6844 C  130.54812 72.98684,  145.77074 71.35625,  150.40599 85.6221 C  155.04125 99.8879457,  141.76746 107.516402,  133.28698 112.81559 C  137.03304 122.08743,  143.28787 136.06112000000002,  131.15262 144.8779 C  119.01736 153.69468,  107.660444 143.42788000000002,  100 137 "/></svg>