<?xml version="1.0"?><svg fill="transparent" viewBox="0 0 200 200" xmlns="http://www.w3.org/2000/svg"><circle cx="85" cy="131" r="5" stroke="black" fill="black" stroke-width=""/><circle cx="148" cy="98" r="5" stroke="black" fill="black" stroke-width=""/><circle cx="30" cy="131" r="5" stroke="black" fill="black" stroke-width=""/><circle cx="117" cy="146" r="5" stroke="black" fill="black" stroke-width=""/><circle cx="66" cy="87" r="5" stroke="black" fill="black" stroke-width=""/><circle cx="76" cy="70" r="5" stroke="black" fill="black" stroke-width=""/><circle cx="128" cy="56" r="5" stroke="black" fill="black" stroke-width=""/><circle cx="96" cy="74" r="5" stroke="black" fill="black" stroke-width=""/><circle cx="147" cy="145" r="5" stroke="black" fill="black" stroke-width=""/><circle cx="138" cy="81" r="5" stroke="black" fill="black" stroke-width=""/><circle cx="133" cy="164" r="5" stroke="black" fill="black" stroke-width=""/><circle cx="162" cy="59" r="5" stroke="black" fill="black" stroke-width=""/><circle cx="36" cy="80" r="5" stroke="black" fill="black" stroke-width=""/><circle cx="35" cy="38" r="5" stroke="black" fill="black" stroke-width=""/><circle cx="156" cy="125" r="5" stroke="black" fill="black" stroke-width=""/><circle cx="169" cy="167" r="5" stroke="black" fill="black" stroke-width=""/><circle cx="59" cy="58" r="5" stroke="black" fill="black" stroke-width=""/><circle cx="30" cy="165" r="5" stroke="black" fill="black" stroke-width=""/><circle cx="120" cy="107" r="5" stroke="black" fill="black" stroke-width=""/><circle cx="61" cy="165" r="5" stroke="black" fill="black" stroke-width=""/><circle cx="156" cy="37" r="5" stroke="black" fill="black" stroke-width=""/><circle cx="48" cy="148" r="5" stroke="black" fill="black" stroke-width=""/><circle cx="66" cy="106" r="5" stroke="black" fill="black" stroke-width=""/><circle cx="94" cy="35" r="5" stroke="black" fill="black" stroke-width=""/><circle cx="79" cy="169" r="5" stroke="black" fill="black" stroke-width=""/><circle cx="167" cy="149" r="5" stroke="black" fill="black" stroke-width=""/><circle cx="49" cy="130" r="5" stroke="black" fill="black" stroke-width=""/><circle cx="98" cy="100" r="5" stroke="black" fill="black" stroke-width=""/><circle cx="39" cy="108" r="5" stroke="black" fill="black" stroke-width=""/><circle cx="119" cy="31" r="5" stroke="black" fill="black" stroke-width=""/><circle cx="106" cy="54" r="5" stroke="black" fill="black" stroke-width=""/><circle cx="100" cy="156" r="5" stroke="black" fill="black" stroke-width=""/><circle cx="106" cy="125" r="5" stroke="black" fill="black" stroke-width=""/><circle cx="75" cy="150" r="5" stroke="black" fill="black" stroke-width=""/><circle cx="119" cy="72" r="5" stroke="black" fill="black" stroke-width=""/><circle cx="169" cy="112" r="5" stroke="black" fill="black" stroke-width=""/><circle cx="166" cy="81" r="5" stroke="black" fill="black" stroke-width=""/><circle cx="34" cy="62" r="5" stroke="black" fill="black" stroke-width=""/><circle cx="76" cy="35" r="5" stroke="black" fill="black" stroke-width=""/><circle cx="135" cy="121" r="5" stroke="black" fill="black" stroke-width=""/><circle cx="67" cy="133" r="5" stroke="black" fill="black" stroke-width=""/><circle cx="151" cy="163" r="5" stroke="black" fill="black" stroke-width=""/><circle cx="138" cy="33" r="5" stroke="black" fill="black" stroke-width=""/><circle cx="114" cy="170" r="5" stroke="black" fill="black" stroke-width=""/><circle cx="56" cy="34" r="5" stroke="black" fill="black" stroke-width=""/><circle cx="113" cy="90" r="5" stroke="black" fill="black" stroke-width=""/><circle cx="86" cy="53" r="5" stroke="black" fill="black" stroke-width=""/><circle cx="83" cy="112" r="5" stroke="black" fill="black" stroke-width=""/><circle cx="84" cy="88" r="5" stroke="black" fill="black" stroke-width=""/><circle cx="49" cy="93" r="5" stroke="black" fill="black" stroke-width=""/></svg>